<mxfile host="app.diagrams.net" modified="2024-07-14T11:43:09.121Z" agent="Mozilla/5.0 (Macintosh; Intel Mac OS X 10_15_7) AppleWebKit/605.1.15 (KHTML, like Gecko) Version/17.5 Safari/605.1.15" etag="rDAt_vD1_OkMBxXzt84h" version="24.6.5" type="google">
  <diagram name="Page-1" id="87AQ6TMrkxevbldejRDn">
    <mxGraphModel grid="1" page="1" gridSize="10" guides="1" tooltips="1" connect="1" arrows="1" fold="1" pageScale="1" pageWidth="850" pageHeight="1100" math="0" shadow="0">
      <root>
        <mxCell id="0" />
        <mxCell id="1" parent="0" />
        <mxCell id="QcCtaBd7Ktt0LzKme6ee-1" value="&lt;b&gt;Login&lt;/b&gt;" style="rounded=1;whiteSpace=wrap;html=1;" vertex="1" parent="1">
          <mxGeometry x="365" y="140" width="120" height="60" as="geometry" />
        </mxCell>
        <mxCell id="QcCtaBd7Ktt0LzKme6ee-2" value="&lt;b&gt;LID&lt;/b&gt;" style="ellipse;whiteSpace=wrap;html=1;" vertex="1" parent="1">
          <mxGeometry x="230" y="110" width="90" height="60" as="geometry" />
        </mxCell>
        <mxCell id="QcCtaBd7Ktt0LzKme6ee-3" value="&lt;b&gt;Role&lt;/b&gt;" style="ellipse;whiteSpace=wrap;html=1;" vertex="1" parent="1">
          <mxGeometry x="320" y="40" width="90" height="60" as="geometry" />
        </mxCell>
        <mxCell id="QcCtaBd7Ktt0LzKme6ee-4" value="&lt;b&gt;Password&lt;/b&gt;" style="ellipse;whiteSpace=wrap;html=1;" vertex="1" parent="1">
          <mxGeometry x="550" y="110" width="90" height="60" as="geometry" />
        </mxCell>
        <mxCell id="QcCtaBd7Ktt0LzKme6ee-5" value="&lt;b&gt;Username&lt;/b&gt;" style="ellipse;whiteSpace=wrap;html=1;" vertex="1" parent="1">
          <mxGeometry x="450" y="40" width="90" height="60" as="geometry" />
        </mxCell>
        <mxCell id="QcCtaBd7Ktt0LzKme6ee-6" value="" style="endArrow=none;html=1;rounded=0;exitX=0;exitY=0.25;exitDx=0;exitDy=0;" edge="1" parent="1" source="QcCtaBd7Ktt0LzKme6ee-1">
          <mxGeometry width="50" height="50" relative="1" as="geometry">
            <mxPoint x="270" y="190" as="sourcePoint" />
            <mxPoint x="320" y="140" as="targetPoint" />
          </mxGeometry>
        </mxCell>
        <mxCell id="QcCtaBd7Ktt0LzKme6ee-11" value="" style="endArrow=none;html=1;rounded=0;exitX=0.25;exitY=0;exitDx=0;exitDy=0;" edge="1" parent="1" source="QcCtaBd7Ktt0LzKme6ee-1">
          <mxGeometry width="50" height="50" relative="1" as="geometry">
            <mxPoint x="315" y="150" as="sourcePoint" />
            <mxPoint x="365" y="100" as="targetPoint" />
          </mxGeometry>
        </mxCell>
        <mxCell id="QcCtaBd7Ktt0LzKme6ee-12" value="" style="endArrow=none;html=1;rounded=0;exitX=0.75;exitY=0;exitDx=0;exitDy=0;" edge="1" parent="1" source="QcCtaBd7Ktt0LzKme6ee-1">
          <mxGeometry width="50" height="50" relative="1" as="geometry">
            <mxPoint x="450" y="150" as="sourcePoint" />
            <mxPoint x="500" y="100" as="targetPoint" />
          </mxGeometry>
        </mxCell>
        <mxCell id="QcCtaBd7Ktt0LzKme6ee-13" value="" style="endArrow=none;html=1;rounded=0;exitX=1;exitY=0.25;exitDx=0;exitDy=0;" edge="1" parent="1" source="QcCtaBd7Ktt0LzKme6ee-1">
          <mxGeometry width="50" height="50" relative="1" as="geometry">
            <mxPoint x="500" y="190" as="sourcePoint" />
            <mxPoint x="550" y="140" as="targetPoint" />
          </mxGeometry>
        </mxCell>
        <mxCell id="QcCtaBd7Ktt0LzKme6ee-14" value="&lt;b&gt;has&lt;/b&gt;" style="rhombus;whiteSpace=wrap;html=1;" vertex="1" parent="1">
          <mxGeometry x="385" y="350" width="80" height="80" as="geometry" />
        </mxCell>
        <mxCell id="QcCtaBd7Ktt0LzKme6ee-15" value="&lt;b&gt;User&lt;/b&gt;" style="rounded=1;whiteSpace=wrap;html=1;" vertex="1" parent="1">
          <mxGeometry x="110" y="360" width="120" height="60" as="geometry" />
        </mxCell>
        <mxCell id="QcCtaBd7Ktt0LzKme6ee-16" value="&lt;b&gt;Roles&lt;/b&gt;" style="rounded=1;whiteSpace=wrap;html=1;" vertex="1" parent="1">
          <mxGeometry x="640" y="360" width="120" height="60" as="geometry" />
        </mxCell>
        <mxCell id="QcCtaBd7Ktt0LzKme6ee-17" value="&lt;b&gt;UID&lt;/b&gt;" style="ellipse;whiteSpace=wrap;html=1;" vertex="1" parent="1">
          <mxGeometry x="20" y="270" width="90" height="60" as="geometry" />
        </mxCell>
        <mxCell id="QcCtaBd7Ktt0LzKme6ee-18" value="&lt;b&gt;Name&lt;/b&gt;" style="ellipse;whiteSpace=wrap;html=1;" vertex="1" parent="1">
          <mxGeometry x="20" y="440" width="90" height="60" as="geometry" />
        </mxCell>
        <mxCell id="QcCtaBd7Ktt0LzKme6ee-19" value="&lt;b&gt;Email&lt;/b&gt;" style="ellipse;whiteSpace=wrap;html=1;" vertex="1" parent="1">
          <mxGeometry x="170" y="260" width="90" height="60" as="geometry" />
        </mxCell>
        <mxCell id="QcCtaBd7Ktt0LzKme6ee-20" value="&lt;b&gt;RID&lt;/b&gt;" style="ellipse;whiteSpace=wrap;html=1;" vertex="1" parent="1">
          <mxGeometry x="730" y="270" width="90" height="60" as="geometry" />
        </mxCell>
        <mxCell id="QcCtaBd7Ktt0LzKme6ee-21" value="&lt;b&gt;Name&lt;/b&gt;" style="ellipse;whiteSpace=wrap;html=1;" vertex="1" parent="1">
          <mxGeometry x="730" y="440" width="90" height="60" as="geometry" />
        </mxCell>
        <mxCell id="QcCtaBd7Ktt0LzKme6ee-22" value="" style="endArrow=none;html=1;rounded=0;exitX=0.75;exitY=0;exitDx=0;exitDy=0;" edge="1" parent="1" source="QcCtaBd7Ktt0LzKme6ee-15">
          <mxGeometry width="50" height="50" relative="1" as="geometry">
            <mxPoint x="160" y="370" as="sourcePoint" />
            <mxPoint x="210" y="320" as="targetPoint" />
          </mxGeometry>
        </mxCell>
        <mxCell id="QcCtaBd7Ktt0LzKme6ee-23" value="" style="endArrow=none;html=1;rounded=0;exitX=0;exitY=0.25;exitDx=0;exitDy=0;" edge="1" parent="1" source="QcCtaBd7Ktt0LzKme6ee-15">
          <mxGeometry width="50" height="50" relative="1" as="geometry">
            <mxPoint x="20" y="380" as="sourcePoint" />
            <mxPoint x="70" y="330" as="targetPoint" />
          </mxGeometry>
        </mxCell>
        <mxCell id="QcCtaBd7Ktt0LzKme6ee-24" value="" style="endArrow=none;html=1;rounded=0;entryX=0;entryY=0.75;entryDx=0;entryDy=0;" edge="1" parent="1" target="QcCtaBd7Ktt0LzKme6ee-15">
          <mxGeometry width="50" height="50" relative="1" as="geometry">
            <mxPoint x="60" y="440" as="sourcePoint" />
            <mxPoint x="110" y="390" as="targetPoint" />
          </mxGeometry>
        </mxCell>
        <mxCell id="QcCtaBd7Ktt0LzKme6ee-25" value="" style="endArrow=none;html=1;rounded=0;exitX=0.5;exitY=0;exitDx=0;exitDy=0;" edge="1" parent="1" source="QcCtaBd7Ktt0LzKme6ee-16">
          <mxGeometry width="50" height="50" relative="1" as="geometry">
            <mxPoint x="680" y="350" as="sourcePoint" />
            <mxPoint x="730" y="300" as="targetPoint" />
          </mxGeometry>
        </mxCell>
        <mxCell id="QcCtaBd7Ktt0LzKme6ee-27" value="" style="endArrow=none;html=1;rounded=0;exitX=0.455;exitY=1.02;exitDx=0;exitDy=0;exitPerimeter=0;" edge="1" parent="1" source="QcCtaBd7Ktt0LzKme6ee-16">
          <mxGeometry width="50" height="50" relative="1" as="geometry">
            <mxPoint x="680" y="520" as="sourcePoint" />
            <mxPoint x="730" y="470" as="targetPoint" />
          </mxGeometry>
        </mxCell>
        <mxCell id="QcCtaBd7Ktt0LzKme6ee-28" value="" style="endArrow=none;html=1;rounded=0;exitX=0.5;exitY=0;exitDx=0;exitDy=0;" edge="1" parent="1" source="QcCtaBd7Ktt0LzKme6ee-14">
          <mxGeometry width="50" height="50" relative="1" as="geometry">
            <mxPoint x="375" y="250" as="sourcePoint" />
            <mxPoint x="425" y="200" as="targetPoint" />
          </mxGeometry>
        </mxCell>
        <mxCell id="QcCtaBd7Ktt0LzKme6ee-29" value="" style="endArrow=none;html=1;rounded=0;exitX=1;exitY=0.5;exitDx=0;exitDy=0;" edge="1" parent="1" source="QcCtaBd7Ktt0LzKme6ee-14">
          <mxGeometry width="50" height="50" relative="1" as="geometry">
            <mxPoint x="590" y="440" as="sourcePoint" />
            <mxPoint x="640" y="390" as="targetPoint" />
          </mxGeometry>
        </mxCell>
        <mxCell id="QcCtaBd7Ktt0LzKme6ee-30" value="" style="endArrow=none;html=1;rounded=0;exitX=1;exitY=0.5;exitDx=0;exitDy=0;" edge="1" parent="1" source="QcCtaBd7Ktt0LzKme6ee-15">
          <mxGeometry width="50" height="50" relative="1" as="geometry">
            <mxPoint x="335" y="440" as="sourcePoint" />
            <mxPoint x="385" y="390" as="targetPoint" />
          </mxGeometry>
        </mxCell>
        <mxCell id="QcCtaBd7Ktt0LzKme6ee-31" value="O" style="text;strokeColor=none;align=center;fillColor=none;html=1;verticalAlign=middle;whiteSpace=wrap;rounded=0;" vertex="1" parent="1">
          <mxGeometry x="410" y="200" width="60" height="30" as="geometry" />
        </mxCell>
        <mxCell id="QcCtaBd7Ktt0LzKme6ee-32" value="O" style="text;strokeColor=none;align=center;fillColor=none;html=1;verticalAlign=middle;whiteSpace=wrap;rounded=0;" vertex="1" parent="1">
          <mxGeometry x="600" y="360" width="60" height="30" as="geometry" />
        </mxCell>
        <mxCell id="QcCtaBd7Ktt0LzKme6ee-33" value="O" style="text;strokeColor=none;align=center;fillColor=none;html=1;verticalAlign=middle;whiteSpace=wrap;rounded=0;" vertex="1" parent="1">
          <mxGeometry x="210" y="360" width="60" height="30" as="geometry" />
        </mxCell>
        <mxCell id="QcCtaBd7Ktt0LzKme6ee-34" value="&lt;b&gt;Permission&lt;/b&gt;" style="rounded=1;whiteSpace=wrap;html=1;" vertex="1" parent="1">
          <mxGeometry x="640" y="600" width="120" height="60" as="geometry" />
        </mxCell>
        <mxCell id="QcCtaBd7Ktt0LzKme6ee-35" value="" style="endArrow=none;html=1;rounded=0;exitX=0;exitY=0.5;exitDx=0;exitDy=0;" edge="1" parent="1" source="QcCtaBd7Ktt0LzKme6ee-34">
          <mxGeometry width="50" height="50" relative="1" as="geometry">
            <mxPoint x="375" y="480" as="sourcePoint" />
            <mxPoint x="425" y="430" as="targetPoint" />
            <Array as="points">
              <mxPoint x="425" y="630" />
            </Array>
          </mxGeometry>
        </mxCell>
        <mxCell id="QcCtaBd7Ktt0LzKme6ee-36" value="M" style="text;strokeColor=none;align=center;fillColor=none;html=1;verticalAlign=middle;whiteSpace=wrap;rounded=0;" vertex="1" parent="1">
          <mxGeometry x="600" y="600" width="60" height="30" as="geometry" />
        </mxCell>
        <mxCell id="QcCtaBd7Ktt0LzKme6ee-37" value="&lt;b&gt;PID&lt;/b&gt;" style="ellipse;whiteSpace=wrap;html=1;" vertex="1" parent="1">
          <mxGeometry x="730" y="680" width="90" height="60" as="geometry" />
        </mxCell>
        <mxCell id="QcCtaBd7Ktt0LzKme6ee-38" value="&lt;b&gt;Type&lt;/b&gt;" style="ellipse;whiteSpace=wrap;html=1;" vertex="1" parent="1">
          <mxGeometry x="730" y="520" width="90" height="60" as="geometry" />
        </mxCell>
        <mxCell id="QcCtaBd7Ktt0LzKme6ee-39" value="&lt;b&gt;Module&lt;/b&gt;" style="ellipse;whiteSpace=wrap;html=1;" vertex="1" parent="1">
          <mxGeometry x="600" y="520" width="90" height="60" as="geometry" />
        </mxCell>
        <mxCell id="QcCtaBd7Ktt0LzKme6ee-40" value="&lt;b&gt;Name&lt;/b&gt;" style="ellipse;whiteSpace=wrap;html=1;" vertex="1" parent="1">
          <mxGeometry x="600" y="680" width="90" height="60" as="geometry" />
        </mxCell>
        <mxCell id="QcCtaBd7Ktt0LzKme6ee-41" value="" style="endArrow=none;html=1;rounded=0;exitX=0.934;exitY=0.015;exitDx=0;exitDy=0;exitPerimeter=0;" edge="1" parent="1" source="QcCtaBd7Ktt0LzKme6ee-34">
          <mxGeometry width="50" height="50" relative="1" as="geometry">
            <mxPoint x="730" y="630" as="sourcePoint" />
            <mxPoint x="780" y="580" as="targetPoint" />
          </mxGeometry>
        </mxCell>
        <mxCell id="QcCtaBd7Ktt0LzKme6ee-42" value="" style="endArrow=none;html=1;rounded=0;exitX=0.25;exitY=0;exitDx=0;exitDy=0;" edge="1" parent="1" source="QcCtaBd7Ktt0LzKme6ee-34">
          <mxGeometry width="50" height="50" relative="1" as="geometry">
            <mxPoint x="600" y="630" as="sourcePoint" />
            <mxPoint x="650" y="580" as="targetPoint" />
          </mxGeometry>
        </mxCell>
        <mxCell id="QcCtaBd7Ktt0LzKme6ee-43" value="" style="endArrow=none;html=1;rounded=0;exitX=0.5;exitY=0;exitDx=0;exitDy=0;" edge="1" parent="1" source="QcCtaBd7Ktt0LzKme6ee-40">
          <mxGeometry width="50" height="50" relative="1" as="geometry">
            <mxPoint x="630" y="710" as="sourcePoint" />
            <mxPoint x="680" y="660" as="targetPoint" />
          </mxGeometry>
        </mxCell>
        <mxCell id="QcCtaBd7Ktt0LzKme6ee-44" value="" style="endArrow=none;html=1;rounded=0;exitX=0.5;exitY=0;exitDx=0;exitDy=0;" edge="1" parent="1" source="QcCtaBd7Ktt0LzKme6ee-37">
          <mxGeometry width="50" height="50" relative="1" as="geometry">
            <mxPoint x="700" y="710" as="sourcePoint" />
            <mxPoint x="750" y="660" as="targetPoint" />
          </mxGeometry>
        </mxCell>
        <mxCell id="QcCtaBd7Ktt0LzKme6ee-45" value="&lt;b&gt;Manages&lt;/b&gt;" style="rhombus;whiteSpace=wrap;html=1;" vertex="1" parent="1">
          <mxGeometry x="280" y="650" width="80" height="80" as="geometry" />
        </mxCell>
        <mxCell id="QcCtaBd7Ktt0LzKme6ee-46" value="" style="endArrow=none;html=1;rounded=0;exitX=0.5;exitY=0;exitDx=0;exitDy=0;" edge="1" parent="1" source="QcCtaBd7Ktt0LzKme6ee-45">
          <mxGeometry width="50" height="50" relative="1" as="geometry">
            <mxPoint x="120" y="470" as="sourcePoint" />
            <mxPoint x="170" y="420" as="targetPoint" />
            <Array as="points">
              <mxPoint x="320" y="560" />
              <mxPoint x="170" y="560" />
            </Array>
          </mxGeometry>
        </mxCell>
        <mxCell id="QcCtaBd7Ktt0LzKme6ee-47" value="&lt;b&gt;Course&lt;/b&gt;" style="rounded=1;whiteSpace=wrap;html=1;" vertex="1" parent="1">
          <mxGeometry x="260" y="850" width="120" height="60" as="geometry" />
        </mxCell>
        <mxCell id="QcCtaBd7Ktt0LzKme6ee-48" value="" style="endArrow=none;html=1;rounded=0;exitX=0.5;exitY=0;exitDx=0;exitDy=0;entryX=0.5;entryY=1;entryDx=0;entryDy=0;" edge="1" parent="1" source="QcCtaBd7Ktt0LzKme6ee-47" target="QcCtaBd7Ktt0LzKme6ee-45">
          <mxGeometry width="50" height="50" relative="1" as="geometry">
            <mxPoint x="120" y="690" as="sourcePoint" />
            <mxPoint x="170" y="640" as="targetPoint" />
          </mxGeometry>
        </mxCell>
        <mxCell id="QcCtaBd7Ktt0LzKme6ee-49" value="&lt;b&gt;School&lt;/b&gt;" style="rounded=1;whiteSpace=wrap;html=1;" vertex="1" parent="1">
          <mxGeometry x="530" y="850" width="120" height="60" as="geometry" />
        </mxCell>
        <mxCell id="QcCtaBd7Ktt0LzKme6ee-50" value="&lt;b&gt;Student&lt;/b&gt;" style="rounded=1;whiteSpace=wrap;html=1;" vertex="1" parent="1">
          <mxGeometry x="30" y="850" width="120" height="60" as="geometry" />
        </mxCell>
        <mxCell id="QcCtaBd7Ktt0LzKme6ee-51" value="" style="endArrow=none;html=1;rounded=0;exitX=0.5;exitY=0;exitDx=0;exitDy=0;" edge="1" parent="1" source="QcCtaBd7Ktt0LzKme6ee-50">
          <mxGeometry width="50" height="50" relative="1" as="geometry">
            <mxPoint x="230" y="740" as="sourcePoint" />
            <mxPoint x="280" y="690" as="targetPoint" />
            <Array as="points">
              <mxPoint x="90" y="690" />
            </Array>
          </mxGeometry>
        </mxCell>
        <mxCell id="QcCtaBd7Ktt0LzKme6ee-52" value="" style="endArrow=none;html=1;rounded=0;entryX=0.5;entryY=0;entryDx=0;entryDy=0;" edge="1" parent="1" target="QcCtaBd7Ktt0LzKme6ee-49">
          <mxGeometry width="50" height="50" relative="1" as="geometry">
            <mxPoint x="360" y="690" as="sourcePoint" />
            <mxPoint x="410" y="640" as="targetPoint" />
            <Array as="points">
              <mxPoint x="450" y="690" />
              <mxPoint x="450" y="800" />
              <mxPoint x="590" y="800" />
            </Array>
          </mxGeometry>
        </mxCell>
        <mxCell id="QcCtaBd7Ktt0LzKme6ee-53" value="&lt;b&gt;Name&lt;/b&gt;" style="ellipse;whiteSpace=wrap;html=1;" vertex="1" parent="1">
          <mxGeometry x="125" y="930" width="90" height="60" as="geometry" />
        </mxCell>
        <mxCell id="QcCtaBd7Ktt0LzKme6ee-54" value="&lt;b&gt;SID&lt;/b&gt;" style="ellipse;whiteSpace=wrap;html=1;" vertex="1" parent="1">
          <mxGeometry x="10" y="940" width="90" height="60" as="geometry" />
        </mxCell>
        <mxCell id="QcCtaBd7Ktt0LzKme6ee-56" value="&lt;b&gt;Email&lt;/b&gt;" style="ellipse;whiteSpace=wrap;html=1;" vertex="1" parent="1">
          <mxGeometry x="125" y="780" width="90" height="60" as="geometry" />
        </mxCell>
        <mxCell id="QcCtaBd7Ktt0LzKme6ee-57" value="M" style="text;strokeColor=none;align=center;fillColor=none;html=1;verticalAlign=middle;whiteSpace=wrap;rounded=0;" vertex="1" parent="1">
          <mxGeometry x="50" y="820" width="60" height="30" as="geometry" />
        </mxCell>
        <mxCell id="QcCtaBd7Ktt0LzKme6ee-58" value="O" style="text;strokeColor=none;align=center;fillColor=none;html=1;verticalAlign=middle;whiteSpace=wrap;rounded=0;" vertex="1" parent="1">
          <mxGeometry x="150" y="420" width="60" height="30" as="geometry" />
        </mxCell>
        <mxCell id="QcCtaBd7Ktt0LzKme6ee-59" value="O" style="text;strokeColor=none;align=center;fillColor=none;html=1;verticalAlign=middle;whiteSpace=wrap;rounded=0;" vertex="1" parent="1">
          <mxGeometry x="570" y="820" width="60" height="30" as="geometry" />
        </mxCell>
        <mxCell id="QcCtaBd7Ktt0LzKme6ee-60" value="M" style="text;strokeColor=none;align=center;fillColor=none;html=1;verticalAlign=middle;whiteSpace=wrap;rounded=0;" vertex="1" parent="1">
          <mxGeometry x="300" y="820" width="60" height="30" as="geometry" />
        </mxCell>
        <mxCell id="QcCtaBd7Ktt0LzKme6ee-61" value="&lt;b&gt;CID&lt;/b&gt;" style="ellipse;whiteSpace=wrap;html=1;" vertex="1" parent="1">
          <mxGeometry x="260" y="940" width="90" height="60" as="geometry" />
        </mxCell>
        <mxCell id="QcCtaBd7Ktt0LzKme6ee-62" value="&lt;b&gt;Name&lt;/b&gt;" style="ellipse;whiteSpace=wrap;html=1;" vertex="1" parent="1">
          <mxGeometry x="380" y="930" width="90" height="60" as="geometry" />
        </mxCell>
        <mxCell id="QcCtaBd7Ktt0LzKme6ee-64" value="&lt;b&gt;Name&lt;/b&gt;" style="ellipse;whiteSpace=wrap;html=1;" vertex="1" parent="1">
          <mxGeometry x="640" y="940" width="90" height="60" as="geometry" />
        </mxCell>
        <mxCell id="QcCtaBd7Ktt0LzKme6ee-65" value="&lt;b&gt;Address&lt;/b&gt;" style="ellipse;whiteSpace=wrap;html=1;" vertex="1" parent="1">
          <mxGeometry x="530" y="940" width="90" height="60" as="geometry" />
        </mxCell>
        <mxCell id="QcCtaBd7Ktt0LzKme6ee-66" value="&lt;b&gt;SclID&lt;/b&gt;" style="ellipse;whiteSpace=wrap;html=1;" vertex="1" parent="1">
          <mxGeometry x="680" y="850" width="90" height="60" as="geometry" />
        </mxCell>
        <mxCell id="QcCtaBd7Ktt0LzKme6ee-71" value="" style="endArrow=none;html=1;rounded=0;exitX=0.75;exitY=0;exitDx=0;exitDy=0;" edge="1" parent="1" source="QcCtaBd7Ktt0LzKme6ee-50">
          <mxGeometry width="50" height="50" relative="1" as="geometry">
            <mxPoint x="75" y="860" as="sourcePoint" />
            <mxPoint x="125" y="810" as="targetPoint" />
          </mxGeometry>
        </mxCell>
        <mxCell id="QcCtaBd7Ktt0LzKme6ee-72" value="" style="endArrow=none;html=1;rounded=0;exitX=0.75;exitY=1;exitDx=0;exitDy=0;" edge="1" parent="1" source="QcCtaBd7Ktt0LzKme6ee-50">
          <mxGeometry width="50" height="50" relative="1" as="geometry">
            <mxPoint x="120" y="980" as="sourcePoint" />
            <mxPoint x="170" y="930" as="targetPoint" />
          </mxGeometry>
        </mxCell>
        <mxCell id="QcCtaBd7Ktt0LzKme6ee-73" value="" style="endArrow=none;html=1;rounded=0;entryX=0.25;entryY=1;entryDx=0;entryDy=0;" edge="1" parent="1" target="QcCtaBd7Ktt0LzKme6ee-50">
          <mxGeometry width="50" height="50" relative="1" as="geometry">
            <mxPoint x="50" y="940" as="sourcePoint" />
            <mxPoint x="100" y="890" as="targetPoint" />
          </mxGeometry>
        </mxCell>
        <mxCell id="QcCtaBd7Ktt0LzKme6ee-74" value="" style="endArrow=none;html=1;rounded=0;entryX=0.5;entryY=1;entryDx=0;entryDy=0;" edge="1" parent="1" target="QcCtaBd7Ktt0LzKme6ee-47">
          <mxGeometry width="50" height="50" relative="1" as="geometry">
            <mxPoint x="300" y="940" as="sourcePoint" />
            <mxPoint x="350" y="890" as="targetPoint" />
          </mxGeometry>
        </mxCell>
        <mxCell id="QcCtaBd7Ktt0LzKme6ee-75" value="" style="endArrow=none;html=1;rounded=0;entryX=1;entryY=0.5;entryDx=0;entryDy=0;" edge="1" parent="1" target="QcCtaBd7Ktt0LzKme6ee-47">
          <mxGeometry width="50" height="50" relative="1" as="geometry">
            <mxPoint x="425" y="930" as="sourcePoint" />
            <mxPoint x="475" y="880" as="targetPoint" />
          </mxGeometry>
        </mxCell>
        <mxCell id="QcCtaBd7Ktt0LzKme6ee-76" value="" style="endArrow=none;html=1;rounded=0;entryX=0.5;entryY=1;entryDx=0;entryDy=0;" edge="1" parent="1" target="QcCtaBd7Ktt0LzKme6ee-49">
          <mxGeometry width="50" height="50" relative="1" as="geometry">
            <mxPoint x="575" y="940" as="sourcePoint" />
            <mxPoint x="625" y="890" as="targetPoint" />
          </mxGeometry>
        </mxCell>
        <mxCell id="QcCtaBd7Ktt0LzKme6ee-77" value="" style="endArrow=none;html=1;rounded=0;entryX=0.883;entryY=1.015;entryDx=0;entryDy=0;entryPerimeter=0;" edge="1" parent="1" target="QcCtaBd7Ktt0LzKme6ee-49">
          <mxGeometry width="50" height="50" relative="1" as="geometry">
            <mxPoint x="680" y="940" as="sourcePoint" />
            <mxPoint x="730" y="890" as="targetPoint" />
          </mxGeometry>
        </mxCell>
        <mxCell id="QcCtaBd7Ktt0LzKme6ee-78" value="" style="endArrow=none;html=1;rounded=0;exitX=1;exitY=0.5;exitDx=0;exitDy=0;" edge="1" parent="1" source="QcCtaBd7Ktt0LzKme6ee-49">
          <mxGeometry width="50" height="50" relative="1" as="geometry">
            <mxPoint x="630" y="930" as="sourcePoint" />
            <mxPoint x="680" y="880" as="targetPoint" />
          </mxGeometry>
        </mxCell>
        <mxCell id="QcCtaBd7Ktt0LzKme6ee-79" value="&lt;b&gt;&lt;font style=&quot;font-size: 16px;&quot;&gt;fig. ER Diagram of Student Management System&lt;/font&gt;&lt;/b&gt;" style="text;strokeColor=none;align=center;fillColor=none;html=1;verticalAlign=middle;whiteSpace=wrap;rounded=0;" vertex="1" parent="1">
          <mxGeometry x="200" y="1060" width="450" height="30" as="geometry" />
        </mxCell>
      </root>
    </mxGraphModel>
  </diagram>
</mxfile>
